<svg width="10" height="10" viewBox="0 0 10 10" fill="none" xmlns="http://www.w3.org/2000/svg">
<g clip-path="url(#clip0_1563_1265)">
<path d="M3.74992 8.75004C3.74992 8.97921 3.93742 9.16671 4.16659 9.16671H5.83325C6.06242 9.16671 6.24992 8.97921 6.24992 8.75004V8.33337H3.74992V8.75004ZM4.99992 0.833374C3.39159 0.833374 2.08325 2.14171 2.08325 3.75004C2.08325 4.74171 2.57909 5.61254 3.33325 6.14171V7.08337C3.33325 7.31254 3.52075 7.50004 3.74992 7.50004H6.24992C6.47909 7.50004 6.66659 7.31254 6.66659 7.08337V6.14171C7.42075 5.61254 7.91659 4.74171 7.91659 3.75004C7.91659 2.14171 6.60825 0.833374 4.99992 0.833374ZM6.18742 5.45837L5.83325 5.70837V6.66671H4.16659V5.70837L3.81242 5.45837C3.24992 5.06671 2.91659 4.42921 2.91659 3.75004C2.91659 2.60004 3.84992 1.66671 4.99992 1.66671C6.14992 1.66671 7.08325 2.60004 7.08325 3.75004C7.08325 4.42921 6.74992 5.06671 6.18742 5.45837Z" fill="#09BC8F"/>
</g>
<defs>
<clipPath id="clip0_1563_1265">
<rect width="10" height="10" fill="white"/>
</clipPath>
</defs>
</svg>
