<svg width="75" height="62" viewBox="0 0 75 62" fill="none" xmlns="http://www.w3.org/2000/svg">
<path fill-rule="evenodd" clip-rule="evenodd" d="M-8.05493 49.8929C-7.50803 54.1102 -6.96124 58.3274 -6.41434 62.5447L-5.97276 65.9503C-5.91699 66.3801 -5.96965 67.2278 -5.75727 67.6125C-5.68226 67.7482 -5.48509 67.8126 -5.34012 67.8926C-4.84116 68.1681 -4.34208 68.4436 -3.84311 68.7191C0.377922 71.0493 4.59896 73.3795 8.81976 75.7097C12.8707 77.946 16.9217 80.1824 20.9725 82.4186C21.3917 82.6502 22.0698 83.254 22.5223 83.0948C22.9525 82.9436 23.3921 82.5706 23.7826 82.3354C24.5323 81.8836 25.2819 81.432 26.0316 80.9802C30.5679 78.2466 35.1041 75.5129 39.6405 72.7794C41.5121 71.6516 43.3836 70.5238 45.2553 69.3959C45.7672 69.0874 46.2795 68.7788 46.7916 68.4701C47.0594 68.3088 47.0942 68.3144 47.1996 68.0405C47.5937 67.0164 47.7762 65.8432 48.0551 64.7806C48.3624 63.6096 48.6698 62.4385 48.9771 61.2675C49.1141 60.745 49.0498 60.6776 48.8263 60.1731C48.384 59.1748 47.9417 58.1765 47.4994 57.1782C46.5178 54.9624 45.5362 52.7467 44.5544 50.5309C44.1574 49.6349 43.2012 49.0044 42.5128 48.3454L31.824 38.1128C31.5525 37.8528 31.281 37.5929 31.0095 37.333C30.9648 38.8951 30.6646 40.5745 31.1049 42.0836C31.8276 44.5601 32.5501 47.0367 33.2726 49.5132C33.6219 50.7103 33.971 51.9073 34.3203 53.1043C34.3852 53.3267 34.7802 54.2086 34.6747 54.4042C34.6161 54.5127 34.1172 54.6224 34.0091 54.6646C33.5448 54.8462 33.0805 55.0279 32.6161 55.2095C31.3225 55.7156 30.0289 56.2216 28.7353 56.7276C27.5717 57.1828 26.4082 57.6379 25.2447 58.0931C24.8501 58.2475 24.3868 58.5333 23.9701 58.5094C23.5973 58.4881 23.1735 58.2984 22.8128 58.2029C22.1787 58.035 21.5444 57.867 20.9103 57.699C19.6646 57.3691 18.4188 57.0392 17.1731 56.7092C15.7716 56.338 14.588 55.2478 13.3895 54.4409C11.3293 53.0538 9.26917 51.6668 7.20913 50.2799C6.73747 49.9623 6.73575 49.7811 6.5478 49.2014C6.12547 47.8985 5.70302 46.5955 5.28068 45.2926C5.05517 44.597 4.7778 43.8984 4.60748 43.1861C4.32654 42.0107 4.15991 40.7939 3.93739 39.6055C3.87033 39.2469 3.80315 38.8883 3.73608 38.5297C2.87332 38.8897 2.01056 39.2498 1.14769 39.6099C1.02266 39.662 0.413297 39.8176 0.359137 39.9454C0.324797 40.0262 0.506061 40.393 0.531988 40.4718C1.24736 42.6504 1.96274 44.829 2.67823 47.0075C2.90328 47.6929 3.12822 48.3781 3.35327 49.0634C2.81559 48.1946 2.27779 47.3256 1.73999 46.4567C1.31754 47.918 0.894977 49.3795 0.472412 50.8408C-0.526209 49.6559 -1.52495 48.471 -2.52368 47.2861C-2.86938 48.471 -3.21509 49.6559 -3.56079 50.8408C-4.63627 49.3795 -5.71176 47.918 -6.78735 46.4567C-6.91515 47.2193 -7.04306 47.9819 -7.17097 48.7445C-7.20957 48.9747 -7.20185 49.635 -7.35085 49.8173C-7.47357 49.9673 -7.82688 49.8929 -8.05493 49.8929Z" fill="#FF5678"/>
<path fill-rule="evenodd" clip-rule="evenodd" d="M60.0411 59.0089C59.9806 60.9941 60.0225 63.5711 58.9659 65.3166C58.7954 65.5982 58.2177 66.4757 58.1532 65.7038C58.0899 64.9459 58.2713 64.1954 58.0917 63.4288C57.9956 63.0186 57.6723 62.1226 57.1198 62.4931C56.8383 62.6819 56.764 63.1482 56.6539 63.4425C56.4909 63.878 56.3084 64.3066 56.1368 64.7387C55.5376 66.2472 54.9167 68.0474 53.5847 69.0457C53.7591 67.7449 54.2342 66.3559 53.9148 65.0411C53.806 64.5929 53.4762 63.7746 52.9084 64.0372C52.3551 64.293 51.9965 65.4346 51.7353 65.9429C50.9436 67.4841 50.1338 68.9963 49.2425 70.4799C48.7941 71.2261 48.3099 71.9081 47.7232 72.5464C47.3564 72.9457 46.8991 73.6206 46.3209 73.68C46.3209 72.5422 46.6851 71.4428 47.0175 70.3713C47.3751 69.2191 47.7011 68.0571 48.0521 66.9028C48.3565 65.9014 48.6065 64.9078 48.8092 63.8809C48.8932 63.4563 48.9596 63.0166 49.3116 62.7423C49.628 62.4958 50.1279 62.3785 50.4808 62.1973C51.4073 61.7213 52.3601 61.2078 53.2208 60.6162C53.5742 60.3733 53.8785 60.0595 54.2485 59.8416C54.6701 59.5934 55.0638 59.3845 55.4538 59.082C57.1369 57.7766 58.6542 56.1708 59.6766 54.2593C59.8425 55.0273 60.0624 55.7777 60.0867 56.5693C60.1115 57.381 60.0659 58.1977 60.0411 59.0089ZM46.1889 68.1336C45.9197 67.6662 45.5096 67.8577 45.1482 68.0831C44.5875 68.4327 44.0252 68.7799 43.4616 69.1252C42.3147 69.8278 41.189 70.5672 40.0684 71.3132C37.7874 72.8314 35.4268 74.074 33.022 75.3591C30.6977 76.601 28.4653 78.079 26.2876 79.5729C25.7642 79.9319 25.2444 80.2993 24.7419 80.6887C24.2958 81.0343 23.9391 81.5197 23.4695 81.8274C22.9804 82.1478 22.6443 81.8878 22.1766 81.6515C21.5916 81.356 20.982 81.1084 20.3841 80.8419C17.9712 79.7663 15.5514 78.6497 13.2042 77.4288C10.8712 76.2155 8.66061 74.8173 6.42518 73.4287C5.36053 72.7674 4.31408 72.0642 3.26395 71.3786C2.14641 70.6491 0.989346 70.1026 -0.182936 69.4823C-0.701605 69.2078 -1.16105 68.8351 -1.69377 68.5856C-2.25381 68.3233 -2.84543 68.1352 -3.34693 67.7569C-3.57175 67.5872 -3.76143 67.3844 -4.0184 67.2644C-4.22939 67.1659 -4.46885 67.1494 -4.67719 67.0447C-5.10103 66.8319 -5.22237 66.4 -5.30441 65.9508C-5.8323 63.0672 -6.1129 60.1036 -6.41884 57.1878C-6.59077 55.5482 -6.78264 53.9149 -7.02026 52.2839C-7.12742 51.5485 -6.91193 50.9788 -6.79877 50.2635C-6.66671 49.428 -6.61452 48.575 -6.52601 47.7339C-6.10841 48.5294 -5.74726 49.3643 -5.21591 50.0903C-4.82423 50.6253 -4.15518 51.384 -3.43393 51.3661C-2.31293 51.3382 -2.36421 49.3612 -2.31903 48.5765C-1.80843 49.0451 -1.65356 49.8085 -1.22973 50.3529C-0.84277 50.8498 -0.316145 51.4664 0.278118 51.6889C1.52933 52.1576 1.40891 49.7694 1.34012 49.0921C1.30555 48.7524 1.11898 48.215 1.5616 48.3698C1.96918 48.5125 2.36582 49.1039 2.70841 49.3751C3.3006 49.8441 3.95018 50.2338 4.55769 50.6814C5.31144 51.2369 6.12476 51.6384 6.89326 52.1557C7.3739 52.4793 7.89822 52.5519 8.42219 52.7898C9.18988 53.1385 9.86803 53.6582 10.5987 54.0763C12.0457 54.9037 13.651 55.6457 15.2337 56.1445C15.7458 56.3059 16.4282 56.7609 16.8167 56.2933C17.0559 56.0056 17.2131 55.5662 17.4161 55.2436C17.673 54.8353 17.9457 54.4378 18.229 54.0483C19.2359 52.6642 20.3533 51.3573 21.5943 50.1899C23.0381 48.8319 24.6168 47.6098 26.3054 46.592C27.0309 46.1547 30.0604 44.1945 30.7264 45.5741C30.1791 45.539 29.7048 45.7448 29.2369 46.0025C29.1227 46.0654 28.5337 46.4979 28.6715 46.1167C28.5004 46.1497 28.3504 46.3791 28.2208 46.4811C27.9969 46.6574 27.6573 46.861 27.3981 47.007C27.1418 47.1511 26.8251 47.1865 26.5915 47.3614C26.5063 47.4252 26.4545 47.5288 26.3732 47.5979L26.1399 47.5998C26.105 47.7326 26.0701 47.8653 26.0352 47.9981C25.9034 47.5636 25.7153 48.1287 25.4951 48.3122C25.3627 48.4225 25.1531 48.5362 24.9972 48.6074C24.8807 48.6606 24.8627 48.5369 24.7495 48.631C24.649 48.7145 24.585 48.8985 24.4769 49.0033C24.3442 49.1315 24.1745 49.2311 24.0267 49.3406C23.7434 49.5503 23.4438 49.715 23.1569 49.9139C22.7708 50.1814 22.5684 50.6415 22.1936 50.9213C22.016 51.0537 21.7403 51.0692 21.6442 51.1541C21.4032 51.3671 21.4826 51.6899 21.0332 51.7041C21.0741 51.7714 21.0987 51.8444 21.1071 51.9232C21 51.9042 20.9048 51.8586 20.8215 51.7862C20.8402 52.2472 20.3994 52.4117 20.1352 52.6955C19.9828 52.859 19.7931 53.089 19.6857 53.2858C19.6678 53.3188 19.6337 53.5815 19.6263 53.585C19.5855 53.6052 19.3372 53.3809 19.3607 53.3996C19.2914 53.8254 18.8907 54.2281 18.7152 54.6223C18.6227 54.83 18.5288 55.1639 18.3466 55.31C18.2971 55.3497 18.1446 55.3082 18.0187 55.4463C17.9263 55.5474 17.8197 55.7345 17.7821 55.8688C17.7571 55.9585 17.7872 56.1905 17.7512 56.2443C17.6853 56.3426 17.5827 56.2438 17.4795 56.3166C17.2887 56.4509 17.2838 56.6609 17.0046 56.6885C17.1971 57.1693 18.3591 57.3176 18.7814 57.4543C19.9758 57.8408 21.2289 58.2268 22.3454 58.8188C22.6342 58.9719 22.9074 59.0981 22.9585 59.4508C23.0299 59.9416 22.7866 60.5943 22.7402 61.09C22.6145 62.4288 22.5888 63.8071 22.615 65.1516C22.6399 66.4251 22.68 67.7106 22.7378 68.9826C22.7912 70.162 23.0225 71.3179 23.1473 72.489C23.1815 72.8104 23.1587 74.2598 23.6962 74.1868C24.1449 74.1259 23.8615 73.1359 23.8531 72.8521C23.8343 72.224 23.9629 71.5828 23.9575 70.9491C23.955 70.6444 24.0845 70.382 24.0969 70.0905C24.1093 69.8025 23.9701 69.5748 24.0118 69.2762C24.0519 68.9897 24.8756 67.3418 24.0845 67.5348C24.1308 67.2992 24.1714 67.0617 24.2326 66.8296C24.3172 66.9078 24.3854 66.9991 24.4368 67.1034C24.5072 66.5972 24.4837 66.0919 24.5273 65.5855C24.5469 65.356 24.6374 65.1047 24.6065 64.8734C24.6124 64.7775 24.6005 64.6835 24.571 64.5913C24.5224 64.5383 24.4621 64.5105 24.3906 64.5077C24.3529 64.3811 24.3432 64.3462 24.41 64.222C24.4387 64.1377 24.4957 64.0851 24.5808 64.0642C24.7431 64.0445 24.7616 63.9486 24.6364 63.7767C24.7017 63.4373 24.7101 63.2231 24.663 62.8844C24.6233 62.5999 24.7691 62.0491 24.6206 61.7958C24.4471 61.4996 24.361 61.7869 24.3287 61.3764C24.3218 61.2896 24.3162 61.1085 24.3502 61.0219C24.3875 60.9276 24.4993 60.9662 24.5136 60.9327C24.6108 60.7046 24.6172 60.2555 24.2735 60.2945C24.287 60.1316 24.3004 59.9686 24.3138 59.8057C24.5621 60.0997 24.4754 59.8509 24.6162 59.6875C24.8059 59.4673 24.9914 59.4294 25.2625 59.3423C25.9852 59.1105 26.6814 58.7618 27.3876 58.4789C28.8829 57.8797 30.4059 57.3447 31.8574 56.6366C34.9103 55.1471 37.9026 53.5305 40.9742 52.0803C40.7548 51.6616 40.8912 51.6412 41.0516 51.248C41.2657 51.4009 41.2206 51.2943 41.373 51.2849C41.3592 51.1537 41.3988 51.1142 41.4919 51.1662C41.566 51.1895 41.642 51.1978 41.7198 51.1909C41.91 51.2245 42.0653 51.3321 42.2382 51.3729C42.2949 51.4159 42.3572 51.4482 42.4252 51.4699C42.4863 51.4555 42.5384 51.4245 42.5815 51.3766C42.8612 51.4299 42.9555 51.6466 42.9678 51.9604C42.9699 52.015 42.8074 52.071 42.854 52.1443C42.9352 52.2725 43.1539 52.2419 43.2791 52.2583C43.2517 52.3915 43.2242 52.5245 43.1969 52.6576C43.746 52.397 43.6028 53.2126 43.7693 53.4805C43.8157 53.5553 43.9191 53.4956 43.9729 53.5822C44.043 53.6952 44.0219 53.8553 44.0817 53.9679C44.2169 54.2225 44.3521 54.1916 44.4869 54.4832C45.1908 56.0056 46.1273 57.4241 46.8031 58.9793C47.1248 59.7195 47.415 60.4723 47.7509 61.206C48.0599 61.8813 48.2366 62.4554 48.0163 63.1927C47.5053 64.9034 46.9589 66.6452 46.2892 68.2975C46.2558 68.2429 46.2224 68.1883 46.1889 68.1336ZM10.5477 80.9023C10.4998 80.9862 10.4518 81.0701 10.4039 81.1541C10.2974 80.5243 10.5811 80.8164 10.5477 80.9023ZM8.29394 79.7231C8.14033 79.6758 8.2067 79.4179 8.21166 79.3076C8.3088 79.4321 8.4041 79.559 8.48499 79.6957C8.42127 79.7049 8.35755 79.714 8.29394 79.7231ZM2.11703 77.3021C2.27835 77.2091 2.3944 77.1423 2.57727 77.0368C2.3914 77.4094 2.3914 77.4094 2.11703 77.3021ZM-7.60057 44.488C-7.84706 45.1101 -7.0955 48.951 -7.7952 49.0764C-7.89557 48.7393 -7.90814 47.811 -8.32356 47.7002C-8.839 47.5627 -8.78818 48.5183 -8.85859 48.8138C-9.91678 48.0568 -10.3868 46.5948 -10.8924 45.4363C-11.5368 43.9595 -12.0438 42.4235 -12.528 40.8848C-12.942 39.5692 -13.2844 38.2304 -13.7028 36.917C-13.9657 36.092 -14.249 35.2651 -14.4258 34.4148C-14.4642 34.2301 -14.6152 33.7617 -14.4869 33.5861C-14.3003 33.3308 -13.6287 33.6232 -13.4123 33.6903C-12.0084 34.1246 -10.5521 34.3116 -9.10968 34.564C-7.50712 34.8442 -5.90813 35.1339 -4.29589 35.3512C-3.89302 35.4055 -3.48993 35.4569 -3.08661 35.5069C-2.82503 35.5394 -2.42908 35.5069 -2.18064 35.6276C-1.67776 35.8715 -1.5707 36.8052 -1.38391 37.2896C-0.687086 39.0968 0.133038 40.8469 0.866734 42.6378C1.52772 44.251 2.02876 45.9673 2.97886 47.4362C2.27029 47.1132 1.37227 45.4056 0.580494 46.3899C0.240089 46.8131 0.325939 47.3707 0.353134 47.8773C0.392548 48.6095 0.404873 49.3472 0.404873 50.0807C-0.369963 49.8737 -0.890589 48.9693 -1.29737 48.3286C-1.85303 47.4535 -2.203 46.629 -2.44902 45.6258C-2.55561 45.1915 -2.83817 45.1807 -3.08926 44.9207C-3.25059 44.7536 -3.33172 44.5285 -3.56311 44.7715C-3.85396 45.077 -3.66048 45.9229 -3.61024 46.2836C-3.49097 47.1418 -3.09975 48.4626 -3.48002 49.269C-3.99328 50.3574 -5.3686 47.6189 -5.5297 47.2234C-5.61163 47.0221 -7.07487 43.1611 -7.60057 44.488ZM-8.5614 25.8365C-8.47474 25.8502 -8.3882 25.8638 -8.30155 25.8774C-8.37138 25.9408 -8.51669 26.1631 -8.63538 26.1043C-8.61072 26.0151 -8.58606 25.9259 -8.5614 25.8365ZM-3.97161 24.8238C-3.99869 24.8545 -4.026 24.8851 -4.0532 24.9158C-4.17742 24.756 -4.1334 24.5232 -4.1334 24.3385C-3.96919 24.4405 -3.92909 24.6445 -3.97161 24.8238ZM-3.60067 26.5959V27.118C-3.94476 26.9647 -3.95156 26.8855 -3.60067 26.5959ZM-3.18283 27.2597C-3.4239 27.1917 -3.45271 27.1368 -3.41883 26.7559C-3.31893 26.9693 -3.25313 27.1099 -3.18283 27.2597ZM-1.79518 31.126C-1.89624 31.3933 -2.48682 30.7563 -2.46515 30.5657C-2.44452 30.3838 -2.35383 30.3295 -2.22869 30.4465C-2.18732 30.4852 -2.24874 30.6252 -2.22235 30.6738C-2.12705 30.8496 -1.93496 30.9934 -1.79518 31.126ZM-1.78861 32.7365C-1.93657 33.1164 -2.20034 32.5182 -1.81373 32.5018C-1.78838 32.5782 -1.77997 32.6564 -1.78861 32.7365ZM-2.07566 32.1376C-2.13293 32.059 -2.18859 31.9794 -2.24263 31.8983C-2.04351 31.9397 -1.88541 32.2381 -1.67533 32.039C-1.70023 32.3426 -1.90995 32.351 -2.07566 32.1376ZM-14.9525 27.2032C-15.2728 26.8438 -13.1846 26.5916 -12.9327 26.5298C-11.1046 26.0816 -9.37864 25.433 -7.66937 24.6371C-6.85397 24.2574 -6.04272 23.8732 -5.24645 23.4523C-4.90259 23.2706 -4.43128 23.1166 -4.14412 22.8438C-3.93912 22.6492 -3.9473 22.5019 -3.68088 22.3859C-3.45467 22.2877 -3.44338 22.3804 -3.33978 22.2027C-3.27756 22.0961 -3.20715 21.7053 -3.24356 21.5896C-3.34278 21.2741 -3.48947 21.5299 -3.69539 21.3125C-3.8437 21.1557 -3.80775 20.71 -3.7673 20.5254C-3.71476 20.6133 -3.68457 20.7088 -3.6765 20.8116C-3.45306 20.6984 -3.54317 20.3094 -3.29876 20.2456C-3.04121 20.1785 -3.06783 20.3848 -3.00065 20.5957C-2.80602 20.3019 -2.96205 20.0513 -3.06737 19.7643C-2.53188 19.6612 -1.95651 19.5613 -1.42574 19.7445C-1.04189 19.8769 -0.71336 20.2024 -0.308081 20.2653C0.0887871 20.3268 0.16507 20.1333 0.457649 19.9369C0.695148 19.7776 0.899113 19.9653 1.02138 19.8449C0.946014 20.2513 0.298054 20.1957 0.377796 20.7036C0.413746 20.9321 0.686165 21.1375 0.810154 21.3153C0.965836 21.5386 1.08994 21.7854 1.19596 22.0369C1.60838 23.0154 1.78469 24.1509 1.95777 25.1973C2.38483 27.7801 2.43888 30.4139 2.84058 33.005C3.03199 34.2392 3.22385 35.4741 3.3233 36.7204C3.34819 37.032 3.53326 37.7388 3.38184 38.0386C3.25381 38.2917 2.96896 38.2924 2.7189 38.3537C2.22961 38.4732 1.77017 38.6357 1.30082 38.8156C0.880104 38.9769 0.757839 39.0758 0.487728 38.6688C0.226494 38.275 0.0973129 37.8055 -0.0895958 37.3737C-0.327671 36.8236 -0.615295 36.2928 -0.891397 35.7621C-0.348989 35.7621 -0.0368195 35.461 -0.0512238 34.8942C-0.0668945 34.2665 -0.56897 34.1175 -0.77593 33.6016C-0.977245 33.8705 -0.994186 33.8781 -1.13765 33.6228C-1.30175 33.331 -1.41249 32.797 -1.51286 32.4659C-1.44107 32.5447 -1.36927 32.6235 -1.29748 32.7022C-1.11645 32.446 -1.40004 32.0422 -1.49488 31.8009C-1.64123 31.4284 -1.66704 31.0257 -1.8059 30.6542C-1.88161 30.4515 -2.05699 30.2919 -2.09998 30.0804C-2.12867 29.9388 -2.01366 29.804 -2.04097 29.6603C-2.08845 29.4101 -2.36375 29.1416 -2.44937 28.8871C-2.58108 28.4956 -2.72409 28.1509 -2.88749 27.7695C-3.10862 27.2532 -3.05723 26.7115 -3.09768 26.162C-3.13962 25.5923 -3.31708 25.0473 -3.37977 24.4801C-3.4231 24.0882 -3.28747 23.5948 -3.57578 23.281C-3.60955 23.8027 -3.46412 23.7946 -3.94085 23.8884C-4.4836 23.9952 -4.87724 24.411 -5.39038 24.535C-5.49616 24.5606 -5.57326 24.0855 -5.532 24.7336C-5.77814 24.5468 -6.3035 24.7788 -6.10748 24.8897C-6.25602 25.0531 -6.5486 24.94 -6.59746 25.1848C-7.1023 24.6802 -7.91182 26.3979 -8.513 25.5019C-8.61222 26.1092 -9.03985 26.4682 -9.61395 26.5485C-9.90261 26.5888 -10.0805 26.6878 -10.3367 26.7768C-10.3887 26.7946 -10.4078 26.8715 -10.4693 26.8923C-10.5634 26.9238 -10.7014 26.8286 -10.7692 26.8471C-10.9071 26.8848 -11.0605 27.0714 -11.253 27.1085C-11.4738 27.1511 -11.7147 27.1315 -11.9357 27.1052C-12.212 27.0723 -12.3336 27.0386 -12.6042 27.1322C-12.8475 27.2165 -13.1082 27.4524 -13.3341 27.1955C-13.6889 27.8267 -14.5348 27.6724 -14.9525 27.2032ZM1.4504 19.5863C1.1819 19.5533 1.36835 19.3158 1.49269 19.2445C1.83055 19.0509 1.74033 19.6221 1.4504 19.5863ZM-13.4171 21.8514C-11.8412 19.5136 -9.14564 17.9073 -6.77388 16.5558C-5.47842 15.8176 -4.1561 15.1021 -2.79588 14.4979C-2.11956 14.1977 -1.43542 13.909 -0.74482 13.6453C-0.37607 13.5044 -0.00282669 13.3763 0.370647 13.2488C0.4739 13.2136 0.661732 13.1055 0.769821 13.1161C0.751156 13.1142 1.03843 13.1945 0.981968 13.2198C1.16703 13.1369 1.25507 12.9209 1.47264 12.8346C1.71716 12.7374 2.02864 12.6972 2.29057 12.6885C2.5223 12.6806 2.72293 12.7791 2.94372 12.7868C3.0888 12.7918 3.2121 12.7209 3.35418 12.7105C3.4269 12.7053 3.42044 12.8171 3.46423 12.8237C3.48325 12.8265 3.67684 12.7517 3.67868 12.753C3.74921 12.7996 3.81166 12.9814 3.87539 13.0523C4.05815 13.2559 4.32642 13.3977 4.57014 13.5048C4.86675 13.6352 5.59031 13.7662 5.25497 14.2485C5.49316 14.2133 5.60402 14.4346 5.30579 14.4907C5.14424 14.5211 5.07521 14.369 4.95525 14.2652C4.67811 14.0258 4.00537 13.6851 3.6062 13.7005C3.38161 13.7091 3.20807 13.8844 3.00099 13.948C2.79714 14.0106 2.69619 13.9135 2.51735 13.9289C2.30832 13.9468 2.17372 14.1287 1.97448 14.161C1.78791 14.1914 1.68398 14.0606 1.51723 14.0697C1.31903 14.0805 1.12705 14.2575 0.937832 14.317C0.636841 14.4115 0.415821 14.476 0.121975 14.6328C-0.447514 14.9367 -1.08349 15.0521 -1.67038 15.3137C-2.13961 15.5228 -2.67165 15.6329 -3.10586 15.8642C-3.58869 16.1212 -4.07371 16.3773 -4.54652 16.6566C-4.88807 16.8583 -5.58247 16.9278 -5.95906 16.8765C-5.96448 17.5895 -6.3058 17.0896 -6.64977 17.402C-6.56842 17.4758 -6.476 17.5301 -6.37287 17.5648C-6.74565 17.7179 -7.0902 17.9084 -7.45135 18.0844C-7.82459 18.2664 -8.22284 18.3064 -8.46806 18.6506C-8.69392 18.9678 -8.6174 18.8042 -8.95446 18.9291C-9.10911 18.9864 -9.24359 19.1613 -9.35502 19.2787C-9.54654 19.4806 -9.58894 19.7863 -9.6983 19.3714C-9.73022 19.422 -9.85583 19.7442 -9.88026 19.7523C-10.0173 19.6028 -10.037 19.7801 -10.1136 19.8435C-10.0733 19.9813 -10.1309 20.0715 -10.2865 20.1143C-10.3652 20.1745 -10.4449 20.2335 -10.5255 20.2912C-10.8177 20.4996 -11.1897 20.6784 -11.3955 20.989C-11.5472 20.8969 -11.6035 20.738 -11.5111 20.5758C-11.8011 20.8507 -12.1471 21.1331 -12.2256 21.5562C-12.2617 21.5204 -12.3037 21.4946 -12.3515 21.4787C-12.4692 21.5605 -12.3158 21.8041 -12.2412 21.859C-11.9155 21.7289 -12.3225 21.776 -12.1037 21.797C-12.0414 21.8029 -11.9773 21.8509 -11.9085 21.8517C-11.7067 21.8545 -11.5172 21.8445 -11.3171 21.8129C-10.876 21.743 -10.4425 21.6127 -10.0154 21.4822C-9.55034 21.34 -9.08514 21.198 -8.63031 21.0236C-8.2558 20.88 -7.88751 20.7199 -7.51933 20.5604C-7.3723 20.4967 -7.22537 20.4321 -7.0781 20.3688C-6.79843 20.2487 -6.65093 20.0513 -6.68999 20.3895C-6.46725 20.3514 -6.27423 20.0277 -6.10322 19.8956C-5.86261 19.7099 -5.59204 19.5714 -5.30695 19.4766C-5.19148 19.4382 -5.10667 19.3894 -4.98729 19.389C-4.92875 19.3889 -4.89372 19.5586 -4.85684 19.5494C-4.60102 19.4856 -4.71764 19.3399 -4.60264 19.1299C-4.35108 18.671 -3.6735 18.4172 -3.25739 18.1565C-2.99327 17.991 -2.80579 17.7683 -2.56195 17.585C-2.44787 17.4994 -2.36502 17.4615 -2.24552 17.4252C-2.15402 17.3974 -2.04178 17.6135 -1.98244 17.3963C-2.19527 17.3068 -2.37078 17.1965 -2.57555 17.1312C-2.7204 17.0849 -2.54663 16.9265 -2.77617 17.0208C-2.86836 17.0587 -2.90005 17.2421 -2.93393 17.3189C-3.19033 17.0835 -3.91123 17.3274 -4.21545 17.426C-4.23642 17.4328 -4.33034 17.3818 -4.37459 17.3849C-4.55021 17.397 -4.67247 17.64 -4.78805 17.7448C-5.09538 18.0231 -5.42875 18.1395 -5.80718 18.2983C-5.70647 17.7326 -4.96632 17.5008 -4.5343 17.2841C-3.90282 16.9672 -3.31489 16.5628 -2.62349 16.3924C-2.16301 16.2788 -1.55284 16.1875 -1.35395 16.738C-1.23491 17.068 -1.21993 17.8878 -1.62267 18.04C-1.66519 17.886 -1.52899 17.7544 -1.48797 17.6207C-1.88887 17.7781 -1.9549 18.2732 -2.25935 18.5317C-2.43047 18.6768 -2.49166 18.7234 -2.5744 18.8637C-2.65656 19.003 -2.69597 19.133 -2.88853 19.2812C-3.20323 18.5939 -3.14999 19.5354 -3.30959 19.6535C-3.24541 19.606 -3.56968 19.7447 -3.53096 19.7301C-3.54594 19.7357 -3.68722 19.5004 -3.77883 19.5054C-3.94557 19.5144 -3.91354 19.7032 -3.99385 19.7982C-4.26615 20.1198 -4.61796 20.3307 -5.0562 20.2801C-5.06646 20.5089 -4.99778 20.7822 -5.30165 20.8031L-5.34152 20.2958C-5.50688 20.4679 -5.72456 20.6313 -5.85915 20.8305C-6.0123 21.0571 -5.99594 21.1967 -6.25003 21.3478C-6.51553 21.5057 -7.0804 21.8169 -7.39638 21.8438C-7.31825 21.7298 -7.33208 21.6268 -7.43763 21.5351C-7.59654 21.7036 -7.83116 21.7202 -8.00032 21.8723C-7.41309 22.1246 -8.45147 22.1116 -8.58318 22.1401C-8.67133 22.1593 -8.74831 22.2419 -8.83762 22.2605C-8.95619 22.2853 -8.97152 22.1571 -9.07362 22.1977C-9.22296 22.2572 -9.16234 22.4251 -9.3186 22.5095C-9.43084 22.5701 -9.62121 22.5693 -9.74785 22.6269C-10.0497 22.7643 -10.6925 23.0687 -10.8965 22.6995C-10.9999 23.333 -12.0555 22.9474 -12.4463 22.9047C-12.9814 22.8463 -13.9136 22.588 -13.4171 21.8514ZM-11.1694 15.3702C-11.0937 15.3038 -11.0179 15.3086 -10.942 15.3849C-11.0476 14.8117 -10.2311 14.5333 -9.87495 14.2896C-9.40249 13.9664 -8.84637 13.3392 -8.22814 13.3888C-8.33358 13.4692 -8.43879 13.5495 -8.54412 13.6299C-8.39373 13.6499 -8.24347 13.6699 -8.09332 13.6899C-8.17801 13.8179 -8.26283 13.9457 -8.34775 14.0736C-8.4865 13.2873 -9.2104 14.28 -9.41989 14.4247C-9.63089 14.5703 -9.84131 14.6788 -10.0288 14.8565C-10.2146 15.0324 -10.3822 15.3493 -10.6893 15.191C-10.7173 15.64 -11.0684 15.5182 -11.3112 15.7669C-11.3214 15.6109 -11.2345 15.5006 -11.1694 15.3702ZM-7.96195 13.1285C-7.21465 12.8407 -6.56404 12.3086 -5.85984 11.9285C-5.18722 11.5653 -4.501 11.2392 -3.8172 10.9005C-3.47034 10.7285 -2.83494 10.284 -2.43842 10.5105C-1.90339 10.8165 -2.63997 10.9152 -2.83125 11.0211C-2.90201 10.55 -3.14988 10.9768 -3.0018 11.2389C-3.41008 11.0576 -4.30049 11.7669 -4.68998 11.9625C-4.77814 12.0068 -4.73861 12.0324 -4.83887 12.0845C-4.86353 12.0973 -5.11912 12.1571 -5.19229 12.1824C-5.55897 12.3086 -5.80061 12.2083 -5.9586 12.6635C-5.99167 12.5563 -6.02474 12.4491 -6.05782 12.3419C-6.28736 12.8719 -6.98511 13.1039 -7.4313 13.4173C-7.5463 13.4981 -7.87472 13.8115 -8.02061 13.7467C-8.22365 13.6564 -8.14218 13.1978 -7.96195 13.1285ZM5.51897 14.7265C5.83449 14.7479 5.53027 14.8992 5.61692 14.9992C5.60713 14.988 5.80695 15.1632 5.78079 15.1151C5.81605 15.1798 5.90075 15.1774 5.94407 15.309C6.0933 15.7612 5.44165 16.2286 5.2219 16.4852C4.79461 16.9844 4.54766 17.6166 4.1024 18.0998C3.90131 18.318 3.70127 18.4687 3.42252 18.5501C3.22742 18.6071 3.02104 18.5461 2.84174 18.739C2.69735 18.8943 2.73008 18.9826 2.57048 19.0652C2.2893 19.2108 2.16542 19.0831 1.89186 19.3978C1.65644 18.7397 2.33286 18.7408 2.68582 18.373C3.17303 17.8653 3.70692 17.353 4.16382 16.8099C4.56968 16.3273 4.73227 15.9041 4.92494 15.3179C4.98567 15.133 5.05182 14.7367 5.21925 14.6207C5.48003 14.4401 5.32354 14.7131 5.51897 14.7265ZM7.07049 31.8222C7.89799 30.8704 8.9245 30.0159 10.0372 29.4426C10.4349 29.2377 11.001 28.9687 11.4132 29.2842C11.8175 29.5935 11.7305 30.2105 11.5675 30.6302C11.4114 30.5671 11.5588 29.9773 11.4777 29.8315C11.301 29.5135 10.9196 29.6824 10.66 29.789C10.3561 29.9139 10.0848 30.0518 9.84407 30.2785C9.74635 30.3703 9.55932 30.4527 9.49675 30.5158C9.40272 30.4756 9.34729 30.5049 9.3307 30.6035C9.35006 30.6639 9.34775 30.7234 9.32367 30.7819C9.30996 30.8005 9.18769 30.7242 9.17029 30.7395C9.09101 30.8093 9.0168 30.8914 8.93879 30.9562C8.78218 31.0865 8.64897 31.1481 8.50481 31.3296C8.22641 31.6804 7.85812 31.886 7.57845 32.2203C7.5153 32.2959 7.43959 32.4896 7.42542 32.5066C7.28402 32.6762 7.07441 32.8105 6.91492 32.9901C6.63917 33.3004 6.34475 33.5087 6.02658 33.7749C5.88957 33.8893 5.72974 34.0127 5.63859 34.1719C5.59711 34.2446 5.57371 34.6427 5.57221 34.6443C5.26016 34.996 5.32089 34.2891 5.3444 34.2005C5.5978 33.2468 6.45457 32.5307 7.07049 31.8222ZM5.36721 38.2712C5.40605 38.421 5.43797 38.5448 5.47738 38.6968C5.22997 38.4881 5.22997 38.4881 5.36721 38.2712ZM5.09998 38.7617C5.00906 38.8559 4.91768 38.9495 4.82561 39.0426C4.62314 38.8225 5.13709 38.7241 5.09998 38.7617ZM4.9715 34.9746C4.8747 35.3772 4.52036 35.8653 4.27675 36.183C4.3036 36.148 4.06887 36.2185 4.04213 36.2345C3.95536 36.2861 4.16313 36.621 3.86248 36.4713C3.75578 36.5334 3.96585 36.7863 3.82088 36.8994C3.40189 35.9177 4.54594 35.0672 4.9889 34.3385C5.20554 34.543 5.02589 34.7488 4.9715 34.9746ZM2.25001 40.2822C2.5555 40.363 2.7144 40.3122 2.92067 40.0036C3.04466 39.8183 3.08995 39.4901 3.37354 39.7674L3.42355 39.4108C3.82837 39.5816 3.79438 40.1987 3.97126 40.5406C4.05734 40.1537 4.26119 39.073 4.88542 39.2464C5.58616 39.441 4.41987 40.6802 4.31155 40.9838C4.07336 40.6037 4.16705 40.9572 3.98532 41.0108C3.82941 41.0569 3.5858 40.9389 3.39636 40.9495C2.81996 40.9818 2.31362 41.2484 1.78711 41.4741C1.65379 41.1045 1.52058 40.7349 1.38725 40.3654C1.69723 40.3899 2.33816 39.5415 2.4292 40.1581C2.1993 40.117 2.13454 40.1274 2.02254 40.3426C2.0941 40.3053 2.16992 40.2852 2.25001 40.2822ZM3.54386 45.106C3.54294 45.1031 4.14008 45.141 4.19332 45.121C4.60194 44.9675 4.45087 44.4909 4.53442 44.1541C4.70289 44.3133 4.61358 44.604 4.66555 44.81C4.72651 45.0522 4.90305 45.2586 4.91941 45.5177C4.95663 46.1029 4.48959 45.973 4.13559 46.1624C3.8331 46.3242 3.79956 46.5278 3.54409 46.0916C3.47495 45.9736 3.32629 45.6661 3.34151 45.5152C3.35649 45.3656 3.58684 45.2413 3.54386 45.106ZM4.02508 47.6384L3.85995 47.4482C4.352 47.6031 4.06184 47.3702 4.175 47.0519C4.55262 47.3104 4.86064 47.5762 5.15944 47.0585L5.6757 49.1996C5.32896 49.2835 4.88161 48.7326 4.64377 48.5434C4.50641 48.434 3.74414 48.0128 4.20185 47.8901C4.14285 47.8062 4.08396 47.7223 4.02508 47.6384ZM7.39499 40.915C7.1084 41.1953 6.81974 41.3522 6.50769 41.5724C6.234 41.7658 6.32827 41.9877 6.091 42.2034C5.93348 42.3468 5.56415 42.4927 5.36951 42.6021C5.02278 42.7969 4.71222 42.834 4.35557 42.616C4.4526 43.4194 3.91745 43.4824 3.25128 43.6415C2.93358 43.7174 2.74551 43.8334 2.51654 43.5343C2.35971 43.3295 2.29829 42.9588 2.49339 42.7714C2.80325 42.4738 3.62878 42.5765 4.02634 42.3893C4.32803 42.2473 4.63536 41.4474 5.00756 41.7385C4.81547 41.424 5.03914 41.3392 5.20612 41.1149C5.38899 40.8691 5.50135 40.5816 5.69056 40.3378C6.05009 39.8742 6.60207 39.408 7.11267 39.1285C7.56197 38.8826 7.79785 39.0567 7.86515 39.573C7.89903 39.8326 7.89776 40.2194 7.75637 40.4497C7.71131 40.5232 7.56254 40.524 7.51749 40.593C7.43901 40.7135 7.51103 40.8015 7.39499 40.915ZM12.6673 34.6833C13.0258 34.9686 12.9909 35.5682 13.0474 35.9765C13.127 36.552 13.0692 37.1089 13.0607 37.6951C13.0517 38.3092 12.7587 38.7092 12.6208 39.2849C12.4675 39.9252 12.2696 40.2643 11.9258 40.8017C12.2987 40.862 11.7437 42.007 11.6522 42.1553C11.5529 42.3162 10.7519 43.0577 11.0953 43.0577C10.9058 43.3146 10.6996 43.5782 10.5108 43.828C10.4365 43.9263 10.3062 43.965 10.2476 44.0344C10.1283 44.1755 10.1211 44.3014 10.0357 44.4661C9.90606 44.716 9.86343 44.6492 9.693 44.8305C9.57534 44.9558 9.49813 45.1211 9.38255 45.2411C9.01012 45.6277 8.96264 45.311 8.75441 45.0132C8.72249 45.093 8.6658 45.143 8.58433 45.1632C8.5191 44.8263 8.96806 44.4858 9.15681 44.2811C9.46598 43.9455 9.74854 43.5758 10.0219 43.2089C10.6073 42.4226 11.1333 41.5872 11.5484 40.6924C11.99 39.7401 12.3427 38.7095 12.5259 37.6706C12.6656 36.8787 12.7983 35.5203 11.7693 35.3189C11.0208 35.1724 10.1958 35.64 9.5788 36.0186C9.20279 36.2492 8.8247 36.4784 8.46656 36.7378C8.07775 37.0191 7.74173 37.4172 7.31974 37.643C7.55056 37.5195 6.78897 37.8911 6.90559 37.7866C6.85097 37.8354 6.8981 37.9846 6.86203 38.0519C6.81502 38.1394 6.65162 38.2259 6.57833 38.2826C6.38474 38.4321 6.07544 38.5851 5.9874 38.832C4.75946 37.9312 7.2014 36.3321 7.82735 35.9249C9.069 35.1171 11.2295 33.5388 12.6673 34.6833ZM15.9796 25.923C15.9679 25.2744 16.4816 24.3889 16.8285 23.86C16.9983 23.6011 17.2694 23.6114 17.3689 23.3061C17.4263 23.1302 17.351 22.9459 17.3681 22.7693C17.3911 22.5306 17.4918 22.3391 17.608 22.1339C18.6581 20.2787 19.934 18.6366 21.2929 17.0181C21.963 16.2202 22.5983 15.3916 23.321 14.642C23.6229 14.3289 24.4342 13.2035 24.8984 13.3161C25.1442 13.3757 25.2872 13.7614 25.3982 13.9582C25.5816 14.2837 25.7834 14.5886 26.0064 14.8879C26.5949 15.6781 27.2737 16.3717 28.0754 16.9318C28.576 17.2818 29.0818 17.622 29.5713 17.9887C29.9742 18.2905 30.5835 18.6356 30.8712 19.0593C31.1591 19.4831 30.7364 19.842 30.5054 20.1939C30.1463 20.7412 29.816 21.3083 29.4555 21.855C29.3122 21.7491 29.3492 21.5339 29.251 21.3983C29.1639 21.278 29.0407 21.2291 28.9204 21.1548C28.6898 21.0127 28.4635 20.839 28.2553 21.077C27.8908 21.4937 28.392 22.4784 28.9322 22.3704C28.9958 22.7815 27.9171 23.4587 27.6467 23.685C26.8171 24.3791 25.9612 24.9826 24.8652 25.0454C24.4217 25.0707 23.9602 25.0361 23.5388 24.8835C23.3369 24.8104 23.1136 24.7101 22.9589 24.5507C22.7736 24.3599 22.7263 24.076 22.5466 23.8871C22.3907 23.7233 22.1766 23.698 22.0208 23.5336C21.8647 23.369 21.7877 23.109 21.7244 22.8959C21.6006 22.4794 21.5772 22.0401 21.4583 21.6227C21.3867 21.3716 21.328 21.0359 21.0946 21.2772C20.7557 21.6277 20.9259 22.7297 21.0127 23.1497C21.1368 23.7487 21.4278 24.2317 21.7326 24.7471C22.0631 25.3063 22.1851 25.8249 22.2443 26.4719C22.3552 27.683 22.6932 28.8451 23.2191 29.9347C23.4405 30.3935 23.7056 30.8249 23.9446 31.2732C24.0563 31.4823 24.3064 32.1959 24.6101 32.1921C25.0952 32.1859 24.4042 30.7312 24.3083 30.487C23.7768 29.1345 23.2692 27.7128 23.1554 26.2483C23.9172 26.4501 24.7476 26.6416 25.5365 26.5137C25.0272 27.6846 25.5592 28.8504 25.494 30.0557C25.4615 30.6601 25.438 31.2177 25.4501 31.8204C25.4609 32.3488 25.2288 32.8771 25.0282 33.3549C24.6297 34.3039 24.1281 35.4746 23.388 36.2015C22.7693 36.8093 21.9417 36.8568 21.1334 36.7168C19.2944 36.3983 18.0862 34.9448 17.3145 33.294C16.8186 32.2336 16.4396 31.1015 16.2043 29.9498C15.9319 28.6169 16.0038 27.275 15.9796 25.923ZM18.3677 16.9402C16.6517 15.6635 19.1453 14.2137 20.4146 14.4111C20.7124 14.4573 21.2602 14.5838 21.2323 14.9834C21.2095 15.3099 20.6798 15.6739 20.4764 15.8755C19.8964 16.4506 19.3062 17.6382 18.3677 16.9402ZM30.8515 45.3086C30.7926 45.2544 30.3123 45.3876 30.5026 45.0954C30.6607 44.8526 31.099 45.1569 31.2583 45.2193C31.127 45.3125 31.0128 45.457 30.8515 45.3086ZM23.706 60.7501C23.5585 60.7688 23.4043 60.3598 23.936 60.6654C23.8593 60.6936 23.7826 60.7219 23.706 60.7501ZM23.6907 67.4164C23.7091 67.5997 23.7636 67.7206 23.6369 67.8539C23.5299 67.7182 23.516 67.5269 23.6907 67.4164ZM23.9066 70.1708C23.8909 70.2706 23.8752 70.3704 23.8598 70.47C23.7369 70.4062 23.6143 70.3423 23.4915 70.2783C23.6298 70.2425 23.7683 70.2067 23.9066 70.1708ZM24.0568 67.8482C24.2398 67.9186 24.1547 67.6936 24.2875 67.6619C24.3351 67.8962 24.2765 68.0968 24.1457 68.2901C24.1332 68.2443 24.0662 67.8516 24.0568 67.8482ZM28.7335 51.2271C28.4768 51.1934 28.4379 51.4723 28.2465 51.5805C28.123 51.6504 27.7469 51.5979 27.6767 51.7317C27.7693 51.7592 27.8621 51.7868 27.9548 51.8143C27.7426 51.9319 27.5305 52.0495 27.3183 52.1671C27.8286 52.1671 28.3603 51.9165 28.8671 51.99C29.0813 52.0212 29.2384 52.0956 29.3727 52.2748C29.4543 52.3835 29.526 52.5585 29.5391 52.6917C29.5533 52.8358 29.444 52.9353 29.4634 53.0041C29.6918 53.0105 29.6648 53.3957 29.6136 53.5527C29.5024 53.8931 29.0607 54.4262 28.6648 54.2103C28.8304 54.4519 28.7882 54.5898 28.5434 54.73C28.5656 54.6501 28.582 54.5104 28.4568 54.5243C28.4247 54.6582 28.437 54.8705 28.3307 54.9715C28.2116 55.0844 28.1054 54.9524 27.9915 55.0259C27.8566 55.1131 27.8971 55.2499 27.791 55.3445C27.6507 55.4694 27.6306 55.3806 27.4628 55.4049C27.2087 55.4419 27.3709 55.2795 27.1674 55.4912C27.097 55.5642 27.1088 55.7541 26.9947 55.861C26.7756 56.0661 26.1908 56.2798 25.9808 56.0168C25.476 56.8395 23.9628 57.0369 23.2585 56.3874C22.1352 55.3517 24.2297 53.2453 24.9212 52.5777C25.6153 51.9078 26.3862 51.3291 27.1662 50.7705C27.6094 50.4532 28.0642 50.1652 28.5286 49.8825C28.8151 49.7079 29.1749 49.3893 29.5269 49.4199C29.8426 49.4474 30.1124 49.6993 30.4449 49.7492C30.6852 49.7852 31.1523 49.8447 30.849 50.18C30.7071 50.3366 30.1501 50.59 29.9604 50.6281C29.849 50.6505 29.7316 50.6076 29.6212 50.6308C29.4342 50.6703 29.3059 50.8325 29.1025 50.8119C29.1669 51.1222 29.0494 51.2683 28.7335 51.2271ZM32.0579 39.7063C32.058 39.9491 31.6271 39.8886 31.5371 39.8061C31.3889 39.6704 31.3837 39.2647 31.3287 39.0802C31.5792 39.145 32.0577 39.3823 32.0579 39.7063ZM28.5861 31.6967C29.4914 30.9316 30.4432 30.2301 31.4495 29.6123C31.8098 29.3911 32.3186 28.9449 32.7661 29.0006C32.9539 29.024 33.342 29.2457 33.2006 29.4902C33.1742 29.5359 32.9653 29.5543 32.9007 29.5874C32.8276 29.625 32.7702 29.7286 32.7023 29.7798C32.2321 30.1344 31.6673 30.3523 31.1956 30.7155C30.808 31.0137 30.4465 31.3474 30.0292 31.6033C29.6289 31.8487 29.2106 32.004 28.8305 32.2759C28.838 32.2704 28.3362 32.456 28.4346 32.4897C27.9941 32.3382 28.4594 31.8039 28.5861 31.6967ZM34.6219 31.4117C35.1597 31.1913 35.6858 30.9239 36.2489 30.7758C36.5298 30.7018 36.8182 30.6463 37.1091 30.6796C37.1585 30.5906 37.2243 30.5709 37.3066 30.6206C37.3708 30.722 37.4554 30.7998 37.5605 30.8542C37.7209 30.981 38.3114 31.1468 38.1935 31.4268C38.1154 31.612 37.5232 31.6274 37.3608 31.6689C36.8709 31.7944 36.4141 32.0767 35.9095 32.146C35.8621 32.1525 35.7075 32.0935 35.7058 32.0939C35.5088 32.1381 35.345 32.3481 35.1758 32.4488C34.8117 32.6656 34.2885 32.7019 34.027 33.076C34.8738 33.6662 35.6084 33.0809 36.3528 32.6352C36.7988 32.3684 37.2775 32.1758 37.7648 32.0047C38.0194 31.9154 38.2764 31.8225 38.5345 31.7441C38.6414 31.704 38.7512 31.6752 38.8639 31.6576C38.9687 31.6361 39.0438 31.6753 39.0891 31.7754C39.4011 31.7647 39.4278 31.5634 39.6157 31.9389C39.8805 32.4683 39.4753 32.4414 39.0946 32.5064C38.5666 32.5965 38.0296 32.7993 37.5093 32.9338C37.3893 32.9649 36.3371 33.2157 36.3359 33.2246C36.2882 33.5661 39.308 33.2498 39.5673 33.1987C40.0247 33.1081 40.5154 32.8511 40.989 32.9131C41.3527 32.9606 42.1811 33.5092 41.601 33.8737C41.4868 33.3116 41.0948 33.7758 40.8902 33.9655C40.6175 34.218 40.2269 34.1937 39.8529 34.2927C39.3415 34.4277 38.0323 34.9346 37.6691 34.2884C37.784 34.8548 35.6971 34.567 35.4102 34.5482C35.1305 34.5299 34.7695 34.591 34.4991 34.509C34.3228 34.4556 34.2248 34.3377 34.0588 34.3111C34.0182 34.3562 33.9694 34.3869 33.9127 34.4031C33.8286 34.3594 33.7527 34.3037 33.6849 34.2363C33.126 33.9721 32.2613 33.8262 32.5719 32.9848C32.8648 32.1913 33.9115 31.703 34.6219 31.4117ZM39.8603 31.9021C39.8743 31.8527 39.8882 31.8033 39.902 31.7538C39.9038 31.9053 40.2552 31.97 40.2147 32.1664C40.1247 32.6011 39.719 31.9479 39.6842 31.8767C39.743 31.8852 39.8015 31.8936 39.8603 31.9021ZM42.0062 32.6244C42.0469 32.8025 42.5143 33.1817 42.3985 33.2692C42.2142 33.0116 41.7049 33.1285 42.0062 32.6244ZM34.1222 48.8741C34.2933 48.5252 34.8106 49.1194 34.756 48.5236C35.0373 48.5498 34.8617 48.7698 35.1987 48.6732C35.325 48.6369 35.4104 48.4929 35.5644 48.4598C35.6054 48.4509 35.7827 48.4653 35.8439 48.4634C36.0466 48.457 36.8411 48.4338 36.2943 48.1604C36.6003 47.9524 36.638 48.058 36.9142 48.2486C36.8434 47.8545 37.2498 48.0782 37.439 48.1274C37.3041 47.9026 37.6389 47.6635 37.7476 47.5116C37.7087 47.7456 37.7292 48.0076 38.0585 47.8579C38.1406 47.8207 38.1221 47.6553 38.1872 47.6283C38.3064 47.5789 38.373 47.6688 38.4157 47.6637C38.4578 47.6589 38.5464 47.6832 38.6348 47.6489C38.7497 47.6045 38.6943 47.446 38.8399 47.4224C38.9347 47.4071 39.004 47.5505 39.1198 47.5516C39.1793 47.5522 39.2785 47.4902 39.3237 47.4935C39.3316 47.4941 39.3882 47.3538 39.4577 47.3503C39.5593 47.3452 39.6007 47.6252 39.6378 47.6796C39.8157 47.9391 40.0523 48.1083 40.3252 48.2467C39.8315 48.7121 38.8357 48.6628 38.2149 48.8197C37.8786 48.9048 37.5918 49.0274 37.2841 49.1855C37.2099 49.2351 37.146 49.2961 37.0925 49.3682C37.0489 49.3385 37.0053 49.3087 36.9617 49.279C36.7931 49.2897 36.6336 49.2039 36.4438 49.2368C35.8577 49.3385 35.3987 49.79 34.8029 49.8906C34.5352 49.9359 34.3152 49.9991 34.1409 49.7604C33.9879 49.5512 34.0132 49.0966 34.1222 48.8741ZM33.3185 46.0928C33.4513 46.2083 33.2915 46.5844 33.5487 46.5435C33.7312 46.5145 33.6948 46.2234 33.8382 46.1616C34.0265 46.0807 34.1401 46.2728 34.3171 46.255C34.647 46.2216 34.6281 45.9254 34.3493 45.7953C34.6392 45.7166 34.732 46.069 34.9887 46.0658C35.3257 46.0616 35.2453 45.6527 35.5321 45.585C35.6563 45.5556 35.6149 45.7431 35.6954 45.7665C35.8567 45.813 35.9691 45.7331 36.1117 45.6627C36.2394 45.5998 36.3303 45.4782 36.4699 45.437C36.5334 45.4181 36.6947 45.4526 36.7413 45.4176C36.8352 45.3473 36.9193 45.0731 37.0117 45.0368C36.9928 45.0442 37.2959 45.2003 37.3393 45.215C37.3127 45.3308 37.2511 45.3445 37.1543 45.2564C37.1543 45.5177 37.8604 45.5991 37.7156 45.2762C38.0975 45.4387 37.8131 45.5224 37.7749 45.7493C37.7597 45.8405 37.7081 45.8381 37.7234 45.9345C37.7304 45.9789 37.9306 45.9407 37.9281 46.0012C37.9112 46.3912 36.7025 46.5111 36.4736 46.5454C35.9995 46.6166 35.5509 46.7364 35.0939 46.884C34.7536 46.9938 34.167 47.3084 33.805 47.2888C33.2842 47.2608 33.2164 46.5621 33.3185 46.0928ZM32.1549 42.1137C32.028 41.6799 32.4353 40.7839 32.9658 40.8959C33.0963 40.9233 33.1284 41.0345 33.2296 41.0838C33.3709 41.1527 33.6007 41.1165 33.7232 41.1877C33.9978 41.3475 33.8594 41.7548 34.1345 41.9019C33.7001 42.0102 32.3567 42.8032 32.1549 42.1137ZM32.6577 43.7991C32.8448 43.6956 33.1483 43.6824 33.2758 43.4834C33.3394 43.5287 33.4596 43.8035 33.5736 43.7614C33.6268 43.7419 33.6818 43.5929 33.678 43.593C33.7795 43.5901 33.7997 43.4487 33.9549 43.4646C34.0973 43.4793 34.2568 43.6554 34.3837 43.721C34.3619 43.2845 34.4707 43.2428 34.8149 43.0091C34.8904 42.9579 34.9534 42.7657 35.023 42.688C34.9564 43.1461 35.1243 43.1486 35.48 43.2174C35.926 43.3037 36.2038 43.5499 36.3825 43.9929C36.0025 43.9167 35.5123 44.0085 35.3625 44.4285C35.0592 43.8587 33.9569 44.645 33.6002 44.806C33.3355 44.9256 33.0276 45.0862 32.8057 44.8077C32.6494 44.6114 32.7389 44.3754 32.7423 44.2011C32.7432 44.1464 32.7982 44.1432 32.7931 44.0617C32.7867 43.9576 32.6549 43.916 32.6577 43.7991ZM36.7151 52.7594C36.6147 52.7985 36.0981 52.8204 36.0948 52.6444C36.092 52.489 37.0065 52.6456 36.7151 52.7594ZM35.876 52.1902C35.4851 52.4379 35.0478 51.5649 34.9041 51.3135C35.3141 51.3674 35.5143 51.0147 35.7558 50.7467C35.9856 51.2644 36.3345 50.9908 36.7015 50.8179C37.1343 50.614 37.6086 50.6125 38.0521 50.4488C38.1905 50.3978 38.318 50.3218 38.4531 50.2634C38.5619 50.2216 38.6703 50.1787 38.7783 50.1347C38.8549 50.0636 38.8822 49.9761 38.8598 49.8723C38.8236 49.7851 38.8483 49.73 38.9342 49.7072C39.0363 49.7385 39.1404 49.7567 39.2469 49.7616C39.4178 49.7268 39.6634 49.561 39.4571 49.3823C39.6781 49.1759 39.8995 49.3811 40.1123 49.4715C40.0617 49.3233 40.0114 49.1751 39.9608 49.0268C40.0664 49.0729 40.3798 49.5232 40.4117 49.5207C40.6143 49.5051 40.5932 49.2255 40.7096 49.1127C40.7768 49.1979 40.796 49.8332 41.0601 49.6192C41.1731 49.5277 40.9299 49.2161 40.87 49.1451C41.1721 49.2152 41.4359 49.5861 41.5176 49.874C41.3741 49.8954 41.2415 49.8657 41.1197 49.7849C41.0418 50.1859 41.7636 50.0235 41.8805 50.2329C42.1093 50.643 40.6207 50.9279 40.4268 50.9659C40.0387 51.042 39.5806 51.0703 39.2249 51.2472C38.884 51.4165 38.8034 51.465 38.4051 51.4968C37.9505 51.533 37.507 51.6871 37.0673 51.807C36.6855 51.911 36.2144 51.9757 35.876 52.1902ZM44.1844 37.5104C44.5433 37.3775 45.7524 36.6883 46.0602 36.9948C46.0277 36.9624 46.2821 37.5029 46.2794 37.4689C46.3013 37.7501 46.2947 37.8632 45.9581 37.998C45.717 38.0944 45.507 37.8894 45.2902 37.9708C45.052 38.0603 45.2186 38.2186 45.096 38.3291C44.9616 38.4503 44.7026 38.5027 44.5354 38.5558C44.1261 38.6858 43.7135 38.7944 43.3062 38.9345C42.4773 39.2195 41.5995 39.4846 40.7477 39.6862C40.1112 39.8368 39.0307 40.2111 38.4442 39.769C38.3869 40.0203 38.247 39.986 38.0527 40.0226C37.9003 40.0513 37.6246 40.1289 37.4891 40.1329C37.2636 40.1397 36.6366 40.0789 36.7229 39.7536C36.6992 39.8432 37.2106 39.5365 37.1221 39.5175C37.3393 39.5645 37.2689 39.4521 37.4468 39.3895C37.6793 39.3079 37.9222 39.3122 38.1595 39.2257C38.7576 39.0077 39.2594 38.7248 39.8907 38.5881C41.3329 38.2762 42.793 38.0252 44.1844 37.5104ZM-13.6284 71.1131C-13.7452 71.1163 -13.8361 70.7749 -13.4806 71.0186C-13.5298 71.0502 -13.579 71.0816 -13.6284 71.1131ZM-16.4366 70.6713C-16.5955 70.7132 -16.6589 70.6219 -16.6265 70.3979C-16.4049 70.3078 -16.3417 70.3989 -16.4366 70.6713ZM-18.6047 70.2141C-18.6453 70.0143 -18.5013 69.9693 -18.3707 69.8796C-18.3839 70.1443 -18.3839 70.1443 -18.6047 70.2141ZM-24.0596 68.5702C-24.2794 68.5205 -24.5722 68.2995 -24.6225 68.6705C-24.6593 68.5846 -24.8469 68.1806 -24.7663 68.0871C-24.7243 68.0381 -24.565 68.2645 -24.582 68.2421C-24.3896 67.842 -24.0581 68.3248 -23.8728 68.4676C-23.935 68.5018 -23.9974 68.536 -24.0596 68.5702ZM33.0754 24.3622C33.1513 24.1972 33.2408 24.1449 33.3436 24.2052C33.182 24.591 32.6349 24.8001 33.0754 24.3622ZM36.877 20.7407C37.0125 21.0019 36.8087 21.1124 36.6631 21.3295C36.7483 21.0953 36.8073 20.933 36.877 20.7407ZM53.3992 46.2448C53.888 46.2447 54.9293 45.9794 55.2241 46.554C55.4191 46.1635 55.6409 46.8957 55.8101 47.0131C55.8291 47.0264 55.9511 46.9305 56.0078 46.9658C56.0933 47.019 56.167 47.1639 56.216 47.2501C56.3636 47.5098 56.4271 47.8186 56.5089 48.1044C55.6551 48.1044 54.7797 47.9 53.9266 47.8257C53.3667 47.7769 52.8177 47.7755 52.257 47.8065C52.1456 47.8127 51.9243 47.7749 51.829 47.7964C51.7322 47.8184 51.5567 48.0211 51.45 47.9885C51.6158 48.3086 53.7395 49.0834 53.9015 48.729C53.7095 48.6095 53.2832 48.5178 53.2835 48.2292C53.2839 47.9058 53.6835 47.9064 53.8953 47.9159C54.3585 47.9367 55.1343 48.0953 55.3242 48.5906C55.4055 48.8029 55.4305 49.3375 55.3411 49.5425C55.2834 49.6749 55.1857 49.834 55.0308 49.8609C54.9673 49.8719 54.8758 49.7851 54.8661 49.7872C54.5483 49.8565 53.9601 50.119 53.6134 49.7489C53.3635 50.0815 52.1595 49.7182 51.7909 49.5927C51.1462 49.3733 50.2586 49.072 49.867 48.4535C49.3897 47.6996 50.3601 47.0625 50.9173 46.7561C51.6789 46.3374 52.549 46.2452 53.3992 46.2448ZM56.6524 47.9878C56.8023 48.0313 56.9521 48.0749 57.1019 48.1184C57.0618 48.3885 56.4707 48.1748 56.6524 47.9878ZM61.1821 57.8079C61.2282 56.7255 60.9239 55.7722 60.7482 54.7254C60.7046 54.4659 60.7491 54.0122 60.5573 53.7988C60.3742 53.5947 59.9655 53.7606 59.9492 53.3999C59.7689 53.6171 59.7871 53.6625 59.5648 53.4127C59.6054 53.5198 59.6113 53.6287 59.5824 53.7396C59.4445 53.6584 58.9446 53.3884 58.9867 53.7575C58.5756 53.6641 58.6947 53.3997 58.4602 53.1979C58.4269 53.1692 58.2931 53.271 58.2409 53.2277C58.1466 53.1491 58.1 53.0778 58.0204 52.9766C57.9194 53.1022 57.7818 53.1929 57.6583 53.2922C57.5865 53.1314 57.4467 53.0134 57.2787 52.9743C57.4358 53.3123 57.8241 53.75 57.2915 53.9423C56.9735 54.057 56.4528 53.9163 56.1161 53.9431C54.8681 54.0426 53.5012 53.7629 52.2946 53.4572C51.055 53.1432 49.8015 52.6999 48.6867 52.052C48.4491 51.9138 48.2994 51.7503 48.0947 51.579C47.8958 51.4124 47.7512 51.3861 47.5121 51.2796C47.0817 51.0879 46.6881 50.7804 46.3607 50.4377C45.6567 49.7008 45.0026 48.7371 45.1987 47.6583C45.3941 46.583 46.1129 45.7427 46.8821 45.0346C47.7905 44.1983 48.8162 43.5 49.9047 42.9371C50.3915 42.6855 51.6365 41.7402 52.1173 42.2933C52.4247 42.6467 52.2518 43.0975 51.8319 43.1761C51.7283 43.1955 51.6201 43.124 51.5154 43.173C51.3644 43.2436 51.4175 43.327 51.3552 43.3859C51.247 43.4882 51.132 43.6477 50.9703 43.7363C50.406 44.0457 49.8605 44.2908 49.3211 44.6676C49.0724 44.8412 48.833 44.9158 48.6139 45.0674C48.3958 45.218 48.3463 45.4673 48.0531 45.3135C48.1575 45.7519 47.5307 46.2214 47.285 46.49C46.9044 46.9059 46.448 47.4367 46.6256 48.052C46.9733 49.2566 48.544 50.1715 49.5492 50.701C50.8037 51.3617 52.187 51.8877 53.5838 52.1053C54.2782 52.2135 54.9959 52.2803 55.6955 52.3489C56.2402 52.4024 57.0761 52.2067 57.468 52.7112C57.4801 52.123 59.2667 52.1749 59.647 52.0996C58.8846 49.42 57.3876 47.0375 55.7872 44.8116C55.0018 43.7189 54.2304 42.5951 53.3351 41.5934C52.3549 40.4968 51.2351 39.5168 50.1711 38.5077C48.0842 36.5286 45.724 34.7622 43.3223 33.2062C40.9261 31.6539 38.4445 30.1261 35.8194 29.0193C32.8211 27.7552 29.6645 26.9238 26.5044 26.2157C26.9331 25.6541 27.6304 25.3801 28.1792 24.9692C28.3714 24.8253 28.6312 24.4801 28.8808 24.4329C29.1511 24.3817 29.364 24.6808 29.5564 24.8309C30.1087 25.2617 30.4907 25.0788 31.1234 25.0528C31.5019 25.0373 32.3983 25.254 32.5579 24.7276C32.7702 25.0181 32.4624 25.2511 32.3049 25.4641C32.4195 25.6286 32.5119 25.458 32.6252 25.4322C32.6601 25.4025 32.6949 25.3726 32.7298 25.3429C32.7861 25.2593 32.8368 25.2588 32.8818 25.3412C32.9494 25.4458 33.0174 25.4227 33.0858 25.2718C33.1046 25.2597 33.1233 25.2475 33.142 25.2354C33.2239 25.1906 33.3028 25.1198 33.3788 25.064C33.9537 24.6416 34.4661 24.2817 35.1007 23.9706C35.6336 23.7094 35.347 23.2097 35.6984 22.8569C35.7779 22.777 35.9117 22.8171 35.9967 22.7494C36.0799 22.6829 36.0925 22.6076 36.1532 22.5364C36.2992 22.3651 36.1255 22.1664 36.4979 22.376L36.3635 21.5986C37.0938 22.3271 37.0909 20.2308 37.1907 19.9206C37.1775 19.9616 37.2562 19.6442 37.2561 19.6469C37.2776 19.0178 37.3611 18.5619 36.6446 18.5254C36.9158 18.3499 36.9988 18.6926 37.1241 18.3378C37.1868 18.1601 36.991 17.8546 37.303 17.9692C37.3688 17.5914 37.3038 17.2857 37.222 16.9187C37.1381 16.5429 37.1874 16.2922 37.1913 15.9165C37.1955 15.4903 37.0015 15.0619 36.9394 14.6422C36.8907 14.3135 36.9408 13.7951 36.5276 13.9159C36.4695 13.8224 36.6736 13.5348 36.6653 13.3926C36.6524 13.1718 36.4193 12.9474 36.3533 12.7353C36.2561 12.8383 36.1192 12.8727 35.9871 12.8261C36.1112 12.538 35.9947 12.4412 35.8759 12.1927C35.8078 12.0504 35.8489 11.8933 35.7031 11.7913C35.6196 11.7327 35.4771 11.8313 35.4117 11.7627C35.2713 11.6158 35.3232 11.4209 35.2266 11.2273C35.1055 10.9845 34.8288 10.799 34.6382 10.6168C33.5664 9.59246 32.4023 8.8096 30.9767 8.40935C29.5384 8.00553 27.8617 7.86086 26.4282 8.32664C25.8553 8.51279 25.3467 8.49371 24.831 8.84136C24.6638 8.95416 24.6458 8.92395 24.5609 9.11199C24.5413 9.15583 24.7193 9.27254 24.6103 9.34423C24.4919 9.42208 24.3611 9.26377 24.3007 9.13237C23.5547 9.68761 22.8556 10.4278 22.4308 11.2766C22.0086 12.1199 21.9698 13.1108 21.8086 14.0273C21.065 13.1538 20.0592 12.735 18.9658 13.155C18.0127 13.5208 17.2742 14.3252 17.0877 15.3672C16.974 16.0024 17.0982 16.6457 17.3788 17.2188C17.5001 17.4664 17.647 17.7406 17.8701 17.9073C18.0466 18.0391 18.3487 18.0206 18.4318 18.2583C18.5591 18.6224 17.8237 19.4088 17.6328 19.7276C17.2874 20.3044 16.9665 20.9 16.7222 21.53C15.8463 20.2578 15.0078 18.8683 14.0119 17.6952C13.0719 16.5881 11.9514 15.5951 10.8524 14.6593C8.57142 12.717 6.19967 10.8923 3.64815 9.34494C1.27236 7.90411 -1.59744 7.10418 -4.36629 7.38702C-7.07165 7.66345 -9.14287 9.42279 -10.8858 11.4519C-14.237 15.3534 -16.2896 20.9142 -16.4901 26.1078C-16.5504 27.6679 -16.4348 29.2077 -16.06 30.7209C-15.8815 31.4414 -15.9075 32.1501 -15.8038 32.8799C-15.6867 33.7032 -15.4842 34.5235 -15.2884 35.3299C-14.5426 38.402 -13.5924 41.4717 -12.5262 44.442C-11.9718 45.9866 -11.301 47.4967 -10.3935 48.8587C-9.9744 49.4879 -9.43142 49.9801 -8.98039 50.5775C-8.54284 51.1569 -8.42727 51.8681 -8.33105 52.579C-8.10035 54.2838 -7.94731 55.9957 -7.80857 57.7104C-7.74969 58.437 -7.68089 59.1573 -7.58732 59.8789C-7.50574 60.5081 -7.71097 60.4772 -8.22572 60.6908C-8.12132 60.1255 -10.5807 60.5101 -10.8128 60.5488C-11.0656 60.5907 -11.3331 60.5913 -11.5321 60.6247C-11.7547 60.6619 -11.9725 60.7158 -12.2287 60.7083C-12.6054 60.6971 -13.3108 60.5982 -13.4546 61.0926C-13.5536 60.5194 -14.2074 61.1462 -13.7237 61.0398C-14.2202 61.0969 -14.7269 61.0019 -15.2294 61.05C-15.8054 61.105 -16.3863 61.1573 -16.9582 61.2464C-17.3563 61.3084 -17.7362 61.4661 -18.1351 61.5119C-18.6454 61.5705 -19.1781 61.5651 -19.6934 61.6117C-21.5942 61.7841 -23.5643 62.2105 -25.412 62.6986C-25.8305 62.8092 -26.3114 62.8878 -26.7113 63.0653C-26.8183 63.1126 -26.9147 63.2188 -27.0172 63.2596C-27.1891 63.3278 -27.1656 63.2807 -27.3183 63.312C-28.2332 63.5 -29.1769 63.8071 -30.0917 64.0481C-30.5991 64.1819 -31.4244 64.3025 -31.8382 64.6666C-32.0238 64.8297 -32.1859 65.1189 -31.8886 65.3042C-31.6511 65.4522 -31.3121 65.216 -31.1199 65.0882C-31.2911 65.5471 -31.6141 65.7758 -31.4397 66.2979C-31.302 66.7105 -30.9911 67.2189 -30.5127 66.9528C-30.4487 67.106 -30.4227 67.4107 -30.2341 67.467C-30.0646 67.5176 -29.9419 67.2968 -29.7758 67.3488C-29.7164 67.3674 -29.7389 67.4829 -29.6857 67.5131C-29.594 67.565 -29.501 67.5871 -29.3959 67.6237C-29.3055 67.6552 -29.1601 67.7199 -29.0659 67.7267C-29.0061 67.7311 -28.8651 67.6259 -28.8656 67.6259C-28.7282 67.6474 -28.6544 67.9176 -28.5555 67.9957C-28.4271 68.0972 -28.3211 68.1203 -28.1603 68.157C-27.8262 68.2333 -27.3954 68.3641 -27.1749 68.0123C-27.2253 68.2635 -26.8931 68.2389 -26.7465 68.2707C-26.7628 68.1384 -26.8339 68.0172 -26.9436 67.9445C-26.6159 67.9668 -26.7487 68.3018 -26.5065 68.3903C-26.3339 68.4532 -26.3535 68.2933 -26.2214 68.2755C-26.0474 68.2521 -25.9153 68.382 -25.6436 68.2622C-25.5847 68.5313 -25.5632 68.8026 -25.2418 68.8428C-25.0532 68.8664 -24.6133 68.5161 -24.6382 68.8076C-24.2168 68.6806 -24.0568 68.7665 -23.8366 69.1484C-23.7994 68.9139 -23.6193 68.9819 -23.4541 68.9675C-23.1921 68.9445 -23.1854 68.9662 -22.9824 68.8137C-22.9639 68.7998 -22.8041 68.4236 -22.7332 68.6574C-22.7012 68.7621 -22.9122 69.0086 -22.9904 69.0713C-22.8933 69.1217 -22.5754 69.2984 -22.4531 69.2659C-22.3473 69.2379 -22.347 69.0519 -22.2199 69.0423C-22.251 69.1492 -22.282 69.2562 -22.3132 69.3631C-22.0659 69.4001 -21.8593 69.2299 -21.664 69.1053C-21.4778 69.5894 -20.9455 69.3167 -20.6561 69.681C-20.5029 69.8738 -20.4958 70.0202 -20.204 70.0706C-19.9054 70.1221 -19.6446 69.9874 -19.3909 70.2406C-19.4713 70.0835 -19.6717 69.9532 -19.4726 69.7843C-19.3371 69.9821 -19.2671 70.2202 -19.1109 70.4041C-19.0893 70.3107 -19.0678 70.2172 -19.0462 70.1236C-18.6389 70.5716 -18.1261 70.5755 -17.6043 70.8238V70.496C-17.2307 71.0823 -17.2108 70.7113 -16.7645 70.4718C-16.7948 70.6442 -16.8252 70.8166 -16.8555 70.9889C-16.5344 70.964 -16.2343 71.3553 -15.9706 71.0229C-15.8114 71.2976 -15.6184 71.1624 -15.3573 71.2496C-15.2089 71.2992 -15.0984 71.4495 -14.954 71.5038C-14.7375 71.5854 -14.6729 71.5816 -14.469 71.6525C-14.2877 71.7156 -14.1847 71.8383 -13.9578 71.8777C-13.8104 71.9033 -13.6768 71.9014 -13.5357 71.8944C-13.4812 71.8917 -13.4992 71.7656 -13.3781 71.795C-13.1908 71.8406 -13.0514 72.0821 -12.9166 72.2059C-12.7138 71.6817 -12.1459 72.3839 -11.8714 72.4774C-11.8451 72.343 -11.8498 72.181 -11.7552 72.0706C-11.6441 72.3208 -11.6017 72.5312 -11.3712 72.6923C-11.2381 72.7853 -11.0426 72.8519 -10.8889 72.8859C-10.7918 72.9074 -10.6152 72.8816 -10.5541 72.9125C-10.45 72.9649 -10.4116 73.1051 -10.3064 73.1183C-10.2445 73.126 -10.1528 72.9585 -10.1065 72.9716C-9.89443 73.0311 -9.77666 73.2959 -9.56255 73.4391C-8.92542 73.8653 -8.12362 73.9067 -7.41378 74.0002C-7.23563 74.0235 -7.20981 73.9735 -7.06508 74.081C-6.98787 74.1385 -7.0229 74.3131 -6.92795 74.3621C-6.57015 74.5464 -6.56992 74.153 -6.4949 73.9086C-6.37655 74.0691 -6.35616 74.2811 -6.19426 74.4089C-6.10587 74.4063 -6.01737 74.4083 -5.9291 74.415C-5.87932 74.4734 -5.84659 74.5409 -5.83138 74.6173C-5.61704 74.7661 -5.37425 74.7143 -5.15288 74.8261C-5.08028 74.8627 -4.95168 75.0841 -4.86226 75.1478C-4.7022 75.2617 -4.45468 75.3226 -4.2718 75.3722C-3.8883 75.476 -3.3384 75.3381 -3.11024 75.7498C-2.80729 75.4159 -2.92448 75.8146 -2.71879 75.8984C-2.59733 75.9478 -2.41468 75.7512 -2.27997 75.7708C-2.0374 75.8058 -1.95006 76.0759 -1.87239 76.2722C-1.72466 76.2383 -1.82607 75.8086 -1.83021 75.7144C-1.64664 75.6921 -1.60585 76.1892 -1.57416 76.2984C-1.28435 76.1549 -1.76003 75.7083 -1.44844 75.5651C-1.47702 75.9455 -1.18213 76.2588 -1.70875 76.3133C-1.63604 76.5425 0.0625114 76.797 0.180511 76.5948C0.206673 76.9687 0.450966 76.6194 0.54108 76.4914C0.55122 76.7096 0.47897 77.0192 0.717045 77.1206C0.878834 77.1895 1.24367 77.0114 1.30716 76.8483C1.37964 77.0974 1.5011 77.0893 1.65206 77.2475C1.75577 77.3562 1.8241 77.5446 1.93288 77.6356C2.13305 77.803 2.50537 77.7774 2.7386 77.74C3.19493 77.6667 3.141 77.5768 3.3036 78.0645C3.34035 77.8794 3.45559 77.4923 3.65656 77.7801C3.78447 77.963 3.51217 78.3659 3.43346 78.5265C3.60931 78.4272 3.78389 78.3094 3.98394 78.2666C3.99512 78.33 4.00537 78.4645 3.97587 78.5232C3.98186 78.5113 4.19528 78.6585 4.27444 78.6992C4.25543 78.6894 4.33702 78.323 4.33471 78.335C4.61623 78.5137 4.42091 78.8553 4.67028 79.0315C4.73469 79.0771 4.88588 79.0239 4.96378 79.0516C5.09941 79.1 5.21672 79.2307 5.33725 79.3071C5.24103 79.1744 5.25486 78.9516 5.26143 78.7984C5.32273 78.8333 5.36652 78.9636 5.4284 78.9739C5.4518 78.9778 5.69436 79.0109 5.69275 79.0097C5.94522 79.1915 5.89326 79.2143 5.6765 79.4329C5.75394 79.5581 6.07763 79.3406 6.16521 79.3045C6.18353 79.3534 6.18826 79.5312 6.22271 79.5629C6.24357 79.6155 6.26454 79.6681 6.28551 79.7207C6.35016 79.6712 6.41953 79.6546 6.49351 79.6711C6.5403 79.6878 6.90548 79.8405 6.93025 79.7883C6.8504 79.7617 6.77791 79.721 6.71315 79.6661C6.92391 79.4713 7.06254 79.3678 7.25671 79.6491C7.28114 79.6845 7.19714 79.8117 7.22203 79.858C7.31479 80.03 7.50539 80.1669 7.6348 80.307C7.68838 80.1135 7.5637 79.629 7.86123 79.6467C8.09896 79.6607 8.27976 80.2529 8.19749 80.437C8.29198 80.3307 8.85616 80.2252 8.96264 80.2583C9.26375 80.3522 9.17928 80.6385 9.54976 80.219C9.80235 80.3983 9.57972 80.4662 9.62524 80.6847C9.69196 80.699 9.7551 80.6821 9.81491 80.6338C9.7702 81.5624 10.4366 80.8529 10.8693 80.9947C11.0392 81.0504 11.0826 81.2487 11.2649 81.3066C11.3614 81.3372 11.4686 81.2648 11.5624 81.2824C11.6376 81.2714 11.7122 81.2578 11.7865 81.2416C11.8805 81.1931 11.9246 81.2472 11.9189 81.4041C12.0701 81.4847 12.0129 81.5162 12.1897 81.5319C12.3035 81.5421 12.4083 81.4202 12.5377 81.441C12.7609 81.477 12.7314 81.6532 12.874 81.7453C13.0024 81.8282 13.1471 81.8255 13.3052 81.8095C13.3858 81.8013 13.612 81.6945 13.6392 81.6942C13.8081 81.6918 13.7165 81.6549 13.9193 81.804C14.0772 81.9204 14.1435 81.9958 14.3373 82.0493C14.5596 82.1106 14.9539 82.2446 15.1035 82.0794C15.3055 82.3908 15.4637 82.1622 15.7304 82.1828C15.8668 82.1935 15.8885 82.2481 16.0099 82.2699C16.2067 82.3052 16.4523 82.2747 16.6617 82.3438C16.9916 82.4528 17.0288 82.5075 17.366 82.5222C17.4268 82.4978 17.4877 82.4733 17.5484 82.4488C17.5666 82.5532 17.6144 82.6384 17.692 82.7044C17.8806 82.7451 18.0045 82.6472 18.1601 82.54C18.276 82.9112 18.6521 82.9437 18.9739 82.9925C19.493 83.0713 19.9894 83.1143 20.49 83.2898C20.9128 83.4379 21.3364 83.6042 21.7431 83.7939C22.101 83.9609 22.4387 84.2106 22.8437 84.0934C23.7612 83.8277 24.6503 82.8593 25.4179 82.3032C26.3271 81.6447 27.3076 81.102 28.2576 80.5099C32.0396 78.1527 36.0351 76.1586 39.7641 73.7137C41.7999 72.3789 43.689 70.7929 45.8753 69.713C45.5641 71.0355 45.0342 72.3779 45.13 73.7625C45.1685 74.3205 45.3283 74.9796 45.7491 75.3691C46.2694 75.8508 46.8489 75.5441 47.3465 75.2C48.4128 74.4629 49.1238 73.3872 49.9218 72.3772C50.8657 71.1824 51.5977 69.8987 52.2909 68.5369C52.4569 68.7766 52.3306 69.1781 52.3331 69.4439C52.3363 69.783 52.4252 70.1098 52.5782 70.4126C52.973 71.1939 53.7243 71.3833 54.4031 70.848C55.7096 69.8177 56.4679 67.9829 57.1679 66.5054C57.5672 67.2691 58.1339 68.2306 59.0928 67.685C59.884 67.2349 60.3489 66.229 60.5909 65.3771C61.2975 62.8902 61.0736 60.3571 61.1821 57.8079Z" fill="black"/>
<path fill-rule="evenodd" clip-rule="evenodd" d="M59.9823 42.8702C59.8921 42.6449 59.8524 42.6817 60.0183 42.4632C60.1476 42.5942 60.0442 42.7023 59.9823 42.8702ZM63.9809 56.5099C63.7272 55.7682 63.8839 54.9627 63.7298 54.2019C63.6591 53.8528 63.5474 53.5142 63.5072 53.1588C63.4893 53.0011 63.3528 52.2912 63.4458 52.1795C63.1595 52.0013 63.1586 51.8694 63.0925 51.52C63.1944 51.4087 63.1816 51.3138 63.054 51.235C62.9705 51.1312 62.887 51.0273 62.8034 50.9235C63.1686 51.1071 62.9526 50.6372 62.9153 50.3665C62.8858 50.1525 62.866 49.9293 62.7966 49.7242C62.7113 49.472 62.5214 49.3445 62.9164 49.3445C62.7864 49.1925 62.592 49.0356 62.5272 48.8495C62.4341 48.5816 62.5877 48.2275 62.3978 47.9909C62.2919 47.8589 61.7461 47.8072 61.8418 47.5222C61.8906 47.3769 62.1118 47.4853 62.1803 47.3835C62.4493 46.9835 61.6549 46.8177 61.616 46.6476C61.5655 46.4269 61.8524 46.3777 61.87 46.1714C61.8872 45.9695 61.582 45.6377 61.5013 45.4571C61.3914 45.4846 61.2708 45.6634 61.145 45.578C61.1211 45.5619 61.157 44.8629 61.1284 44.7701C61.1003 44.6789 61.0428 44.4369 61.0223 44.3921C60.9408 44.2143 60.7077 44.1277 60.6707 43.9176C60.6486 43.7922 61.1263 43.6024 60.5784 43.5965C60.7752 43.2398 60.4146 43.0231 60.2834 42.7183C60.1147 42.3265 60.0152 41.9033 59.8419 41.5094C59.6734 41.1266 59.485 40.7633 59.2421 40.4247C59.0223 40.1182 58.9272 39.8234 58.7515 39.4997C58.7163 39.4713 58.6812 39.4428 58.646 39.4144C58.4994 39.4362 58.4524 39.3676 58.505 39.2084C58.3929 39.0377 58.3095 38.8555 58.2107 38.6771C58.0958 38.4699 57.9408 38.3009 57.8221 38.0994C57.6646 37.8322 57.618 37.5309 57.44 37.2628C57.2211 36.9331 56.975 36.6423 56.7721 36.3002C56.5179 35.8717 56.2364 35.6053 55.9165 35.2734C55.7642 35.1153 55.7459 34.7205 55.5594 34.4961C55.3562 34.2517 55.1556 34.1854 55.0148 33.8646C54.8315 33.4471 54.5627 33.2478 54.301 32.887C54.085 32.5894 53.9796 32.2473 53.7418 31.9594C53.5372 31.7121 53.305 31.4861 53.0867 31.2516C52.811 30.9555 52.6075 30.5957 52.3206 30.3141C52.3619 30.3548 52.0709 30.1176 52.0855 30.1252C52.0211 30.0914 51.8132 30.0642 51.8435 30.0826C51.4104 29.8209 50.8678 28.8629 50.2162 29.3705C49.8733 29.6374 50.0378 30.127 50.2771 30.3929C50.3799 30.5072 50.914 31.0702 51.0294 30.8328C51.1539 31.0143 51.5376 31.8918 51.8566 31.6404C51.8241 31.9403 51.9931 31.8408 52.1046 32.0435C52.178 32.1773 52.1423 32.2429 52.1958 32.4517C52.3429 33.0257 52.9044 33.5862 53.2034 34.0867C53.9477 35.3324 54.7687 36.5139 55.5137 37.761C56.2237 38.9495 57.0188 40.0773 57.6999 41.2819C58.4747 42.6516 59.4399 43.9446 60.0235 45.4212C60.0432 45.4709 60.2054 45.5494 60.2456 45.6239C60.3158 45.7535 60.3007 45.9774 60.3458 46.1241C60.5024 46.6326 60.7563 47.1333 61.0455 47.5545C61.2993 47.9241 61.3177 48.4263 61.4923 48.8599C61.7386 49.4709 61.9986 50.0756 62.2379 50.6897C62.6102 51.6456 62.8624 52.5617 63.1198 53.5597C63.2865 54.2064 63.4191 54.8527 63.4723 55.5206C63.5211 56.1347 63.5331 56.7744 63.7541 57.3558C63.9049 57.1165 64.0824 56.8064 63.9809 56.5099Z" fill="black"/>
<path fill-rule="evenodd" clip-rule="evenodd" d="M59.4305 53.2491C59.6039 53.1301 59.6039 53.1301 59.6343 52.9054C59.4018 52.949 59.4018 52.949 59.4305 53.2491Z" fill="black"/>
<path fill-rule="evenodd" clip-rule="evenodd" d="M25.8131 22.6157C25.9307 23.5976 27.237 23.1332 27.5309 22.5393C27.7449 22.107 28.2852 20.3985 27.7038 20.0375C27.2729 19.77 27.1808 20.9231 27.0745 21.1807C26.8965 21.6121 26.7574 21.3064 26.3616 21.4171C25.9247 21.5393 25.7644 22.2086 25.8131 22.6157Z" fill="black"/>
<path fill-rule="evenodd" clip-rule="evenodd" d="M24.3858 20.8187C24.8527 20.9254 25.3104 20.8704 25.6421 20.4912C25.8258 20.2813 26.0702 19.8648 25.7395 19.6616C25.4397 19.4775 25.0999 19.9085 24.7843 19.8194C24.355 19.6982 24.5761 19.2249 24.4288 18.9124C23.8876 19.2327 23.5857 20.636 24.3858 20.8187Z" fill="black"/>
<path fill-rule="evenodd" clip-rule="evenodd" d="M24.87 23.2979C24.4199 23.297 24.4162 23.8662 24.6512 24.1101C24.876 24.3436 25.4446 24.5798 25.7494 24.3983C26.3507 24.04 25.2343 23.3349 24.87 23.2979Z" fill="black"/>
<path fill-rule="evenodd" clip-rule="evenodd" d="M27.0596 53.5354C26.9692 53.3683 26.7983 53.6764 26.6827 53.7265C26.4946 53.8079 26.3403 53.3766 26.3943 53.8936C25.9692 53.6934 25.7112 54.1526 25.437 54.3917C25.0497 54.7296 24.576 54.9129 24.3176 55.3928C25.5337 55.6854 26.8698 54.6073 27.7766 53.8993C27.9246 53.7836 28.6642 53.2003 28.1629 53.1439C27.9579 53.1209 27.2117 53.8162 27.0596 53.5354Z" fill="black"/>
<path fill-rule="evenodd" clip-rule="evenodd" d="M26.699 52.5231C26.9373 52.3302 26.4235 52.3126 26.3423 52.2923C26.3493 52.4457 26.3561 52.5991 26.3631 52.7525C26.4781 52.6808 26.5901 52.6043 26.699 52.5231Z" fill="black"/>
<path fill-rule="evenodd" clip-rule="evenodd" d="M25.8041 53.1666C25.8753 53.1209 26.0739 52.9781 25.9388 52.8717C25.8168 52.9516 25.7296 53.0819 25.7104 53.2306C25.7417 53.2093 25.7729 53.188 25.8041 53.1666Z" fill="black"/>
<path fill-rule="evenodd" clip-rule="evenodd" d="M6.10905 40.7243C5.95683 40.7857 5.88861 40.8827 5.90463 41.0156C6.13855 40.9665 6.09396 40.7393 6.10905 40.7243Z" fill="black"/>
</svg>
